<mxfile host="app.diagrams.net" modified="2024-07-08T16:34:28.340Z" agent="Mozilla/5.0 (X11; Linux x86_64) AppleWebKit/537.36 (KHTML, like Gecko) Chrome/126.0.0.0 Safari/537.36" etag="zgV9ArT14w4N2Jad502a" version="24.6.4" type="github">
  <diagram name="PÃ¡gina-1" id="9XP-4ulKt9qVLNEWF3gl">
    <mxGraphModel dx="1249" dy="726" grid="1" gridSize="10" guides="1" tooltips="1" connect="1" arrows="1" fold="1" page="1" pageScale="1" pageWidth="827" pageHeight="1169" math="0" shadow="0">
      <root>
        <mxCell id="0" />
        <mxCell id="1" parent="0" />
        <mxCell id="UAtVvdvIkmCO4cbzxBcW-1" value="DEV&lt;div&gt;&lt;br&gt;&lt;/div&gt;" style="shape=umlActor;verticalLabelPosition=bottom;verticalAlign=top;html=1;outlineConnect=0;" vertex="1" parent="1">
          <mxGeometry x="30" y="220" width="30" height="60" as="geometry" />
        </mxCell>
        <mxCell id="UAtVvdvIkmCO4cbzxBcW-2" value="" style="endArrow=classic;html=1;rounded=0;exitX=0.5;exitY=0.5;exitDx=0;exitDy=0;exitPerimeter=0;" edge="1" parent="1" source="UAtVvdvIkmCO4cbzxBcW-1">
          <mxGeometry width="50" height="50" relative="1" as="geometry">
            <mxPoint x="390" y="290" as="sourcePoint" />
            <mxPoint x="250" y="250" as="targetPoint" />
          </mxGeometry>
        </mxCell>
        <mxCell id="UAtVvdvIkmCO4cbzxBcW-8" value="" style="swimlane;startSize=0;" vertex="1" parent="1">
          <mxGeometry x="265" y="300" width="100" height="70" as="geometry" />
        </mxCell>
        <mxCell id="UAtVvdvIkmCO4cbzxBcW-29" value="&lt;span style=&quot;color: rgb(0, 0, 0); font-family: Helvetica; font-size: 12px; font-style: normal; font-variant-ligatures: normal; font-variant-caps: normal; font-weight: 400; letter-spacing: normal; orphans: 2; text-align: center; text-indent: 0px; text-transform: none; widows: 2; word-spacing: 0px; -webkit-text-stroke-width: 0px; white-space: nowrap; background-color: rgb(251, 251, 251); text-decoration-thickness: initial; text-decoration-style: initial; text-decoration-color: initial; display: inline !important; float: none;&quot;&gt;PEGA TAREFA&lt;/span&gt;&lt;div style=&quot;forced-color-adjust: none; color: rgb(0, 0, 0); font-family: Helvetica; font-size: 12px; font-style: normal; font-variant-ligatures: normal; font-variant-caps: normal; font-weight: 400; letter-spacing: normal; orphans: 2; text-align: center; text-indent: 0px; text-transform: none; widows: 2; word-spacing: 0px; -webkit-text-stroke-width: 0px; white-space: nowrap; background-color: rgb(251, 251, 251); text-decoration-thickness: initial; text-decoration-style: initial; text-decoration-color: initial;&quot;&gt;E GERA A/S&lt;/div&gt;" style="text;html=1;align=center;verticalAlign=middle;resizable=0;points=[];autosize=1;strokeColor=none;fillColor=none;" vertex="1" parent="UAtVvdvIkmCO4cbzxBcW-8">
          <mxGeometry x="-10" y="15" width="110" height="40" as="geometry" />
        </mxCell>
        <mxCell id="UAtVvdvIkmCO4cbzxBcW-13" value="" style="endArrow=classic;html=1;rounded=0;exitX=0.5;exitY=0.5;exitDx=0;exitDy=0;exitPerimeter=0;" edge="1" parent="1" source="UAtVvdvIkmCO4cbzxBcW-1">
          <mxGeometry width="50" height="50" relative="1" as="geometry">
            <mxPoint x="390" y="290" as="sourcePoint" />
            <mxPoint x="250" y="150" as="targetPoint" />
          </mxGeometry>
        </mxCell>
        <mxCell id="UAtVvdvIkmCO4cbzxBcW-14" value="" style="endArrow=classic;html=1;rounded=0;exitX=0.5;exitY=0.5;exitDx=0;exitDy=0;exitPerimeter=0;" edge="1" parent="1" source="UAtVvdvIkmCO4cbzxBcW-1">
          <mxGeometry width="50" height="50" relative="1" as="geometry">
            <mxPoint x="70" y="256" as="sourcePoint" />
            <mxPoint x="250" y="330" as="targetPoint" />
          </mxGeometry>
        </mxCell>
        <mxCell id="UAtVvdvIkmCO4cbzxBcW-17" value="" style="swimlane;startSize=0;" vertex="1" parent="1">
          <mxGeometry x="262.5" y="200" width="90" height="70" as="geometry" />
        </mxCell>
        <mxCell id="UAtVvdvIkmCO4cbzxBcW-20" value="" style="swimlane;startSize=0;" vertex="1" parent="1">
          <mxGeometry x="262.5" y="100" width="102.5" height="70" as="geometry" />
        </mxCell>
        <mxCell id="UAtVvdvIkmCO4cbzxBcW-21" value="PEGA TAREFA&lt;div&gt;E GERA A/S&lt;/div&gt;" style="text;html=1;align=center;verticalAlign=middle;resizable=0;points=[];autosize=1;strokeColor=none;fillColor=none;" vertex="1" parent="UAtVvdvIkmCO4cbzxBcW-20">
          <mxGeometry x="-7.5" y="10" width="110" height="40" as="geometry" />
        </mxCell>
        <mxCell id="UAtVvdvIkmCO4cbzxBcW-22" value="" style="swimlane;startSize=0;" vertex="1" parent="1">
          <mxGeometry x="262.5" y="410" width="100" height="70" as="geometry" />
        </mxCell>
        <mxCell id="UAtVvdvIkmCO4cbzxBcW-23" value="&lt;span style=&quot;color: rgb(0, 0, 0); font-family: Helvetica; font-size: 12px; font-style: normal; font-variant-ligatures: normal; font-variant-caps: normal; font-weight: 400; letter-spacing: normal; orphans: 2; text-align: center; text-indent: 0px; text-transform: none; widows: 2; word-spacing: 0px; -webkit-text-stroke-width: 0px; white-space: nowrap; background-color: rgb(251, 251, 251); text-decoration-thickness: initial; text-decoration-style: initial; text-decoration-color: initial; display: inline !important; float: none;&quot;&gt;PEGA TAREFA&lt;/span&gt;&lt;div style=&quot;forced-color-adjust: none; color: rgb(0, 0, 0); font-family: Helvetica; font-size: 12px; font-style: normal; font-variant-ligatures: normal; font-variant-caps: normal; font-weight: 400; letter-spacing: normal; orphans: 2; text-align: center; text-indent: 0px; text-transform: none; widows: 2; word-spacing: 0px; -webkit-text-stroke-width: 0px; white-space: nowrap; background-color: rgb(251, 251, 251); text-decoration-thickness: initial; text-decoration-style: initial; text-decoration-color: initial;&quot;&gt;E GERA A/S&lt;/div&gt;" style="text;html=1;align=center;verticalAlign=middle;resizable=0;points=[];autosize=1;strokeColor=none;fillColor=none;" vertex="1" parent="UAtVvdvIkmCO4cbzxBcW-22">
          <mxGeometry x="-10" y="10" width="110" height="40" as="geometry" />
        </mxCell>
        <mxCell id="UAtVvdvIkmCO4cbzxBcW-24" value="" style="endArrow=classic;html=1;rounded=0;exitX=0.5;exitY=0.5;exitDx=0;exitDy=0;exitPerimeter=0;" edge="1" parent="1" source="UAtVvdvIkmCO4cbzxBcW-1">
          <mxGeometry width="50" height="50" relative="1" as="geometry">
            <mxPoint x="55" y="260" as="sourcePoint" />
            <mxPoint x="250" y="440" as="targetPoint" />
          </mxGeometry>
        </mxCell>
        <mxCell id="UAtVvdvIkmCO4cbzxBcW-28" value="&lt;span style=&quot;color: rgb(0, 0, 0); font-family: Helvetica; font-size: 12px; font-style: normal; font-variant-ligatures: normal; font-variant-caps: normal; font-weight: 400; letter-spacing: normal; orphans: 2; text-align: center; text-indent: 0px; text-transform: none; widows: 2; word-spacing: 0px; -webkit-text-stroke-width: 0px; white-space: nowrap; background-color: rgb(251, 251, 251); text-decoration-thickness: initial; text-decoration-style: initial; text-decoration-color: initial; display: inline !important; float: none;&quot;&gt;PEGA TAREFA&lt;/span&gt;&lt;div style=&quot;forced-color-adjust: none; color: rgb(0, 0, 0); font-family: Helvetica; font-size: 12px; font-style: normal; font-variant-ligatures: normal; font-variant-caps: normal; font-weight: 400; letter-spacing: normal; orphans: 2; text-align: center; text-indent: 0px; text-transform: none; widows: 2; word-spacing: 0px; -webkit-text-stroke-width: 0px; white-space: nowrap; background-color: rgb(251, 251, 251); text-decoration-thickness: initial; text-decoration-style: initial; text-decoration-color: initial;&quot;&gt;E GERA A/S&lt;/div&gt;" style="text;html=1;align=center;verticalAlign=middle;resizable=0;points=[];autosize=1;strokeColor=none;fillColor=none;" vertex="1" parent="1">
          <mxGeometry x="255" y="213" width="110" height="40" as="geometry" />
        </mxCell>
        <mxCell id="UAtVvdvIkmCO4cbzxBcW-30" value="Actor" style="shape=umlActor;verticalLabelPosition=bottom;verticalAlign=top;html=1;outlineConnect=0;" vertex="1" parent="1">
          <mxGeometry x="690" y="220" width="30" height="60" as="geometry" />
        </mxCell>
        <mxCell id="UAtVvdvIkmCO4cbzxBcW-31" value="" style="endArrow=classic;html=1;rounded=0;exitX=1;exitY=0.5;exitDx=0;exitDy=0;" edge="1" parent="1" source="UAtVvdvIkmCO4cbzxBcW-20">
          <mxGeometry width="50" height="50" relative="1" as="geometry">
            <mxPoint x="350" y="310" as="sourcePoint" />
            <mxPoint x="660" y="240" as="targetPoint" />
          </mxGeometry>
        </mxCell>
        <mxCell id="UAtVvdvIkmCO4cbzxBcW-44" value="TESTE 1" style="edgeLabel;html=1;align=center;verticalAlign=middle;resizable=0;points=[];" vertex="1" connectable="0" parent="UAtVvdvIkmCO4cbzxBcW-31">
          <mxGeometry x="-0.0121" y="-1" relative="1" as="geometry">
            <mxPoint x="-1" as="offset" />
          </mxGeometry>
        </mxCell>
        <mxCell id="UAtVvdvIkmCO4cbzxBcW-32" value="" style="endArrow=classic;html=1;rounded=0;exitX=1;exitY=0.5;exitDx=0;exitDy=0;" edge="1" parent="1" source="UAtVvdvIkmCO4cbzxBcW-17">
          <mxGeometry width="50" height="50" relative="1" as="geometry">
            <mxPoint x="350" y="310" as="sourcePoint" />
            <mxPoint x="650" y="270" as="targetPoint" />
          </mxGeometry>
        </mxCell>
        <mxCell id="UAtVvdvIkmCO4cbzxBcW-45" value="TESTE 2" style="edgeLabel;html=1;align=center;verticalAlign=middle;resizable=0;points=[];" vertex="1" connectable="0" parent="UAtVvdvIkmCO4cbzxBcW-32">
          <mxGeometry x="-0.2298" y="-1" relative="1" as="geometry">
            <mxPoint as="offset" />
          </mxGeometry>
        </mxCell>
        <mxCell id="UAtVvdvIkmCO4cbzxBcW-33" value="" style="endArrow=classic;html=1;rounded=0;exitX=1;exitY=0.5;exitDx=0;exitDy=0;" edge="1" parent="1" source="UAtVvdvIkmCO4cbzxBcW-8">
          <mxGeometry width="50" height="50" relative="1" as="geometry">
            <mxPoint x="350" y="310" as="sourcePoint" />
            <mxPoint x="650" y="290" as="targetPoint" />
          </mxGeometry>
        </mxCell>
        <mxCell id="UAtVvdvIkmCO4cbzxBcW-46" value="TESTE 3" style="edgeLabel;html=1;align=center;verticalAlign=middle;resizable=0;points=[];" vertex="1" connectable="0" parent="UAtVvdvIkmCO4cbzxBcW-33">
          <mxGeometry x="-0.1857" y="1" relative="1" as="geometry">
            <mxPoint x="1" as="offset" />
          </mxGeometry>
        </mxCell>
        <mxCell id="UAtVvdvIkmCO4cbzxBcW-34" value="" style="endArrow=classic;html=1;rounded=0;exitX=1;exitY=0.5;exitDx=0;exitDy=0;" edge="1" parent="1" source="UAtVvdvIkmCO4cbzxBcW-22">
          <mxGeometry width="50" height="50" relative="1" as="geometry">
            <mxPoint x="370" y="430" as="sourcePoint" />
            <mxPoint x="650" y="320" as="targetPoint" />
          </mxGeometry>
        </mxCell>
        <mxCell id="UAtVvdvIkmCO4cbzxBcW-47" value="TESTE 4" style="edgeLabel;html=1;align=center;verticalAlign=middle;resizable=0;points=[];" vertex="1" connectable="0" parent="UAtVvdvIkmCO4cbzxBcW-34">
          <mxGeometry x="-0.1352" y="-2" relative="1" as="geometry">
            <mxPoint as="offset" />
          </mxGeometry>
        </mxCell>
        <mxCell id="UAtVvdvIkmCO4cbzxBcW-35" value="FAZER&lt;div&gt;&lt;br&gt;&lt;/div&gt;" style="text;html=1;align=center;verticalAlign=middle;resizable=0;points=[];autosize=1;strokeColor=none;fillColor=none;" vertex="1" parent="1">
          <mxGeometry x="277.5" y="45" width="60" height="40" as="geometry" />
        </mxCell>
        <mxCell id="UAtVvdvIkmCO4cbzxBcW-36" value="" style="swimlane;startSize=0;" vertex="1" parent="1">
          <mxGeometry x="932.5" y="280" width="90" height="70" as="geometry" />
        </mxCell>
        <mxCell id="UAtVvdvIkmCO4cbzxBcW-37" value="&lt;span style=&quot;color: rgb(0, 0, 0); font-family: Helvetica; font-size: 12px; font-style: normal; font-variant-ligatures: normal; font-variant-caps: normal; font-weight: 400; letter-spacing: normal; orphans: 2; text-align: center; text-indent: 0px; text-transform: none; widows: 2; word-spacing: 0px; -webkit-text-stroke-width: 0px; white-space: nowrap; background-color: rgb(251, 251, 251); text-decoration-thickness: initial; text-decoration-style: initial; text-decoration-color: initial; display: inline !important; float: none;&quot;&gt;TESTA&lt;/span&gt;&lt;div style=&quot;forced-color-adjust: none; color: rgb(0, 0, 0); font-family: Helvetica; font-size: 12px; font-style: normal; font-variant-ligatures: normal; font-variant-caps: normal; font-weight: 400; letter-spacing: normal; orphans: 2; text-align: center; text-indent: 0px; text-transform: none; widows: 2; word-spacing: 0px; -webkit-text-stroke-width: 0px; white-space: nowrap; background-color: rgb(251, 251, 251); text-decoration-thickness: initial; text-decoration-style: initial; text-decoration-color: initial;&quot;&gt;A/S&lt;/div&gt;" style="text;html=1;align=center;verticalAlign=middle;resizable=0;points=[];autosize=1;strokeColor=none;fillColor=none;" vertex="1" parent="UAtVvdvIkmCO4cbzxBcW-36">
          <mxGeometry x="15" y="15" width="60" height="40" as="geometry" />
        </mxCell>
        <mxCell id="UAtVvdvIkmCO4cbzxBcW-38" value="" style="swimlane;startSize=0;" vertex="1" parent="1">
          <mxGeometry x="930" y="180" width="90" height="70" as="geometry" />
        </mxCell>
        <mxCell id="UAtVvdvIkmCO4cbzxBcW-39" value="" style="swimlane;startSize=0;" vertex="1" parent="1">
          <mxGeometry x="930" y="80" width="90" height="70" as="geometry" />
        </mxCell>
        <mxCell id="UAtVvdvIkmCO4cbzxBcW-40" value="TESTA&lt;div&gt;A/S&lt;/div&gt;" style="text;html=1;align=center;verticalAlign=middle;resizable=0;points=[];autosize=1;strokeColor=none;fillColor=none;" vertex="1" parent="UAtVvdvIkmCO4cbzxBcW-39">
          <mxGeometry x="17.5" y="10" width="60" height="40" as="geometry" />
        </mxCell>
        <mxCell id="UAtVvdvIkmCO4cbzxBcW-41" value="" style="swimlane;startSize=0;" vertex="1" parent="1">
          <mxGeometry x="930" y="390" width="90" height="70" as="geometry" />
        </mxCell>
        <mxCell id="UAtVvdvIkmCO4cbzxBcW-42" value="&lt;span style=&quot;color: rgb(0, 0, 0); font-family: Helvetica; font-size: 12px; font-style: normal; font-variant-ligatures: normal; font-variant-caps: normal; font-weight: 400; letter-spacing: normal; orphans: 2; text-align: center; text-indent: 0px; text-transform: none; widows: 2; word-spacing: 0px; -webkit-text-stroke-width: 0px; white-space: nowrap; background-color: rgb(251, 251, 251); text-decoration-thickness: initial; text-decoration-style: initial; text-decoration-color: initial; display: inline !important; float: none;&quot;&gt;TESTA&lt;/span&gt;&lt;div style=&quot;forced-color-adjust: none; color: rgb(0, 0, 0); font-family: Helvetica; font-size: 12px; font-style: normal; font-variant-ligatures: normal; font-variant-caps: normal; font-weight: 400; letter-spacing: normal; orphans: 2; text-align: center; text-indent: 0px; text-transform: none; widows: 2; word-spacing: 0px; -webkit-text-stroke-width: 0px; white-space: nowrap; background-color: rgb(251, 251, 251); text-decoration-thickness: initial; text-decoration-style: initial; text-decoration-color: initial;&quot;&gt;A/S&lt;/div&gt;" style="text;html=1;align=center;verticalAlign=middle;resizable=0;points=[];autosize=1;strokeColor=none;fillColor=none;" vertex="1" parent="UAtVvdvIkmCO4cbzxBcW-41">
          <mxGeometry x="15" y="10" width="60" height="40" as="geometry" />
        </mxCell>
        <mxCell id="UAtVvdvIkmCO4cbzxBcW-43" value="&lt;span style=&quot;color: rgb(0, 0, 0); font-family: Helvetica; font-size: 12px; font-style: normal; font-variant-ligatures: normal; font-variant-caps: normal; font-weight: 400; letter-spacing: normal; orphans: 2; text-align: center; text-indent: 0px; text-transform: none; widows: 2; word-spacing: 0px; -webkit-text-stroke-width: 0px; white-space: nowrap; background-color: rgb(251, 251, 251); text-decoration-thickness: initial; text-decoration-style: initial; text-decoration-color: initial; display: inline !important; float: none;&quot;&gt;TESTA&lt;/span&gt;&lt;div style=&quot;forced-color-adjust: none; color: rgb(0, 0, 0); font-family: Helvetica; font-size: 12px; font-style: normal; font-variant-ligatures: normal; font-variant-caps: normal; font-weight: 400; letter-spacing: normal; orphans: 2; text-align: center; text-indent: 0px; text-transform: none; widows: 2; word-spacing: 0px; -webkit-text-stroke-width: 0px; white-space: nowrap; background-color: rgb(251, 251, 251); text-decoration-thickness: initial; text-decoration-style: initial; text-decoration-color: initial;&quot;&gt;A/S&lt;/div&gt;" style="text;html=1;align=center;verticalAlign=middle;resizable=0;points=[];autosize=1;strokeColor=none;fillColor=none;" vertex="1" parent="1">
          <mxGeometry x="947.5" y="193" width="60" height="40" as="geometry" />
        </mxCell>
        <mxCell id="UAtVvdvIkmCO4cbzxBcW-48" value="" style="endArrow=classic;html=1;rounded=0;entryX=0;entryY=0.5;entryDx=0;entryDy=0;exitX=0.5;exitY=0.5;exitDx=0;exitDy=0;exitPerimeter=0;" edge="1" parent="1" source="UAtVvdvIkmCO4cbzxBcW-30" target="UAtVvdvIkmCO4cbzxBcW-39">
          <mxGeometry width="50" height="50" relative="1" as="geometry">
            <mxPoint x="670" y="320" as="sourcePoint" />
            <mxPoint x="720" y="270" as="targetPoint" />
          </mxGeometry>
        </mxCell>
        <mxCell id="UAtVvdvIkmCO4cbzxBcW-49" value="" style="endArrow=classic;html=1;rounded=0;entryX=0;entryY=0.25;entryDx=0;entryDy=0;exitX=0.5;exitY=0.5;exitDx=0;exitDy=0;exitPerimeter=0;" edge="1" parent="1" source="UAtVvdvIkmCO4cbzxBcW-30" target="UAtVvdvIkmCO4cbzxBcW-38">
          <mxGeometry width="50" height="50" relative="1" as="geometry">
            <mxPoint x="715" y="260" as="sourcePoint" />
            <mxPoint x="940" y="125" as="targetPoint" />
          </mxGeometry>
        </mxCell>
        <mxCell id="UAtVvdvIkmCO4cbzxBcW-50" value="" style="endArrow=classic;html=1;rounded=0;entryX=0;entryY=0.5;entryDx=0;entryDy=0;exitX=0.5;exitY=0.5;exitDx=0;exitDy=0;exitPerimeter=0;" edge="1" parent="1" source="UAtVvdvIkmCO4cbzxBcW-30" target="UAtVvdvIkmCO4cbzxBcW-36">
          <mxGeometry width="50" height="50" relative="1" as="geometry">
            <mxPoint x="725" y="270" as="sourcePoint" />
            <mxPoint x="950" y="135" as="targetPoint" />
          </mxGeometry>
        </mxCell>
        <mxCell id="UAtVvdvIkmCO4cbzxBcW-51" value="" style="endArrow=classic;html=1;rounded=0;entryX=0;entryY=0.5;entryDx=0;entryDy=0;exitX=0.5;exitY=0.5;exitDx=0;exitDy=0;exitPerimeter=0;" edge="1" parent="1" source="UAtVvdvIkmCO4cbzxBcW-30" target="UAtVvdvIkmCO4cbzxBcW-41">
          <mxGeometry width="50" height="50" relative="1" as="geometry">
            <mxPoint x="720" y="250" as="sourcePoint" />
            <mxPoint x="960" y="145" as="targetPoint" />
          </mxGeometry>
        </mxCell>
        <mxCell id="UAtVvdvIkmCO4cbzxBcW-71" value="" style="edgeStyle=orthogonalEdgeStyle;rounded=0;orthogonalLoop=1;jettySize=auto;html=1;" edge="1" parent="1" source="UAtVvdvIkmCO4cbzxBcW-52" target="UAtVvdvIkmCO4cbzxBcW-70">
          <mxGeometry relative="1" as="geometry" />
        </mxCell>
        <mxCell id="UAtVvdvIkmCO4cbzxBcW-52" value="validando&amp;nbsp;&lt;div&gt;teste&lt;/div&gt;" style="rhombus;whiteSpace=wrap;html=1;" vertex="1" parent="1">
          <mxGeometry x="1350" y="210" width="80" height="80" as="geometry" />
        </mxCell>
        <mxCell id="UAtVvdvIkmCO4cbzxBcW-53" value="" style="endArrow=classic;startArrow=classic;html=1;rounded=0;exitX=1;exitY=0.5;exitDx=0;exitDy=0;entryX=0;entryY=0.5;entryDx=0;entryDy=0;" edge="1" parent="1" source="UAtVvdvIkmCO4cbzxBcW-39" target="UAtVvdvIkmCO4cbzxBcW-52">
          <mxGeometry width="50" height="50" relative="1" as="geometry">
            <mxPoint x="1090" y="280" as="sourcePoint" />
            <mxPoint x="1140" y="230" as="targetPoint" />
          </mxGeometry>
        </mxCell>
        <mxCell id="UAtVvdvIkmCO4cbzxBcW-54" value="" style="endArrow=classic;startArrow=classic;html=1;rounded=0;exitX=1;exitY=0.5;exitDx=0;exitDy=0;entryX=0;entryY=0.5;entryDx=0;entryDy=0;" edge="1" parent="1" source="UAtVvdvIkmCO4cbzxBcW-38" target="UAtVvdvIkmCO4cbzxBcW-52">
          <mxGeometry width="50" height="50" relative="1" as="geometry">
            <mxPoint x="1090" y="280" as="sourcePoint" />
            <mxPoint x="1140" y="230" as="targetPoint" />
          </mxGeometry>
        </mxCell>
        <mxCell id="UAtVvdvIkmCO4cbzxBcW-55" value="" style="endArrow=classic;startArrow=classic;html=1;rounded=0;exitX=1;exitY=0.5;exitDx=0;exitDy=0;entryX=0;entryY=0.5;entryDx=0;entryDy=0;" edge="1" parent="1" source="UAtVvdvIkmCO4cbzxBcW-36" target="UAtVvdvIkmCO4cbzxBcW-52">
          <mxGeometry width="50" height="50" relative="1" as="geometry">
            <mxPoint x="1100" y="300" as="sourcePoint" />
            <mxPoint x="1150" y="250" as="targetPoint" />
          </mxGeometry>
        </mxCell>
        <mxCell id="UAtVvdvIkmCO4cbzxBcW-56" value="" style="endArrow=classic;startArrow=classic;html=1;rounded=0;exitX=1;exitY=0.5;exitDx=0;exitDy=0;entryX=0;entryY=0.5;entryDx=0;entryDy=0;" edge="1" parent="1" source="UAtVvdvIkmCO4cbzxBcW-41" target="UAtVvdvIkmCO4cbzxBcW-52">
          <mxGeometry width="50" height="50" relative="1" as="geometry">
            <mxPoint x="1110" y="300" as="sourcePoint" />
            <mxPoint x="1160" y="250" as="targetPoint" />
          </mxGeometry>
        </mxCell>
        <mxCell id="UAtVvdvIkmCO4cbzxBcW-57" value="" style="endArrow=classic;html=1;rounded=0;exitX=0.5;exitY=0;exitDx=0;exitDy=0;" edge="1" parent="1" source="UAtVvdvIkmCO4cbzxBcW-52">
          <mxGeometry width="50" height="50" relative="1" as="geometry">
            <mxPoint x="1310" y="220" as="sourcePoint" />
            <mxPoint x="1530" y="140" as="targetPoint" />
            <Array as="points">
              <mxPoint x="1390" y="140" />
            </Array>
          </mxGeometry>
        </mxCell>
        <mxCell id="UAtVvdvIkmCO4cbzxBcW-64" value="positivo" style="edgeLabel;html=1;align=center;verticalAlign=middle;resizable=0;points=[];" vertex="1" connectable="0" parent="UAtVvdvIkmCO4cbzxBcW-57">
          <mxGeometry x="-0.2381" y="1" relative="1" as="geometry">
            <mxPoint as="offset" />
          </mxGeometry>
        </mxCell>
        <mxCell id="UAtVvdvIkmCO4cbzxBcW-60" value="" style="endArrow=classic;html=1;rounded=0;exitX=0.5;exitY=1;exitDx=0;exitDy=0;entryX=1.003;entryY=0.671;entryDx=0;entryDy=0;entryPerimeter=0;" edge="1" parent="1" source="UAtVvdvIkmCO4cbzxBcW-52" target="UAtVvdvIkmCO4cbzxBcW-69">
          <mxGeometry width="50" height="50" relative="1" as="geometry">
            <mxPoint x="1310" y="220" as="sourcePoint" />
            <mxPoint x="190" y="630" as="targetPoint" />
            <Array as="points">
              <mxPoint x="1390" y="620" />
              <mxPoint x="313" y="630" />
            </Array>
          </mxGeometry>
        </mxCell>
        <mxCell id="UAtVvdvIkmCO4cbzxBcW-65" value="negativo" style="edgeLabel;html=1;align=center;verticalAlign=middle;resizable=0;points=[];" vertex="1" connectable="0" parent="UAtVvdvIkmCO4cbzxBcW-60">
          <mxGeometry x="-0.4104" y="1" relative="1" as="geometry">
            <mxPoint as="offset" />
          </mxGeometry>
        </mxCell>
        <mxCell id="UAtVvdvIkmCO4cbzxBcW-61" value="alimenta a planilha&lt;div&gt;solicita pullrequest&lt;/div&gt;" style="shape=document;whiteSpace=wrap;html=1;boundedLbl=1;" vertex="1" parent="1">
          <mxGeometry x="1534" y="100" width="120" height="80" as="geometry" />
        </mxCell>
        <mxCell id="UAtVvdvIkmCO4cbzxBcW-62" value="FIM" style="ellipse;whiteSpace=wrap;html=1;" vertex="1" parent="1">
          <mxGeometry x="1860" y="240" width="120" height="80" as="geometry" />
        </mxCell>
        <mxCell id="UAtVvdvIkmCO4cbzxBcW-63" value="" style="endArrow=classic;html=1;rounded=0;exitX=1;exitY=0.5;exitDx=0;exitDy=0;entryX=0.5;entryY=0;entryDx=0;entryDy=0;" edge="1" parent="1" source="UAtVvdvIkmCO4cbzxBcW-61" target="UAtVvdvIkmCO4cbzxBcW-62">
          <mxGeometry width="50" height="50" relative="1" as="geometry">
            <mxPoint x="1640" y="240" as="sourcePoint" />
            <mxPoint x="1960" y="140" as="targetPoint" />
            <Array as="points">
              <mxPoint x="1920" y="140" />
            </Array>
          </mxGeometry>
        </mxCell>
        <mxCell id="UAtVvdvIkmCO4cbzxBcW-66" value="retornas tarefa para ajustes do DEV" style="whiteSpace=wrap;html=1;aspect=fixed;" vertex="1" parent="1">
          <mxGeometry x="460" y="585" width="80" height="80" as="geometry" />
        </mxCell>
        <mxCell id="UAtVvdvIkmCO4cbzxBcW-67" value="RETORNADAS" style="text;html=1;align=center;verticalAlign=middle;resizable=0;points=[];autosize=1;strokeColor=none;fillColor=none;" vertex="1" parent="1">
          <mxGeometry x="5" y="568" width="110" height="30" as="geometry" />
        </mxCell>
        <mxCell id="UAtVvdvIkmCO4cbzxBcW-68" value="" style="swimlane;startSize=0;" vertex="1" parent="1">
          <mxGeometry x="15" y="610" width="100" height="70" as="geometry" />
        </mxCell>
        <mxCell id="UAtVvdvIkmCO4cbzxBcW-69" value="&lt;span style=&quot;color: rgb(0, 0, 0); font-family: Helvetica; font-size: 12px; font-style: normal; font-variant-ligatures: normal; font-variant-caps: normal; font-weight: 400; letter-spacing: normal; orphans: 2; text-align: center; text-indent: 0px; text-transform: none; widows: 2; word-spacing: 0px; -webkit-text-stroke-width: 0px; white-space: nowrap; background-color: rgb(251, 251, 251); text-decoration-thickness: initial; text-decoration-style: initial; text-decoration-color: initial; display: inline !important; float: none;&quot;&gt;PEGA TAREFA&lt;/span&gt;&lt;div style=&quot;forced-color-adjust: none; color: rgb(0, 0, 0); font-family: Helvetica; font-size: 12px; font-style: normal; font-variant-ligatures: normal; font-variant-caps: normal; font-weight: 400; letter-spacing: normal; orphans: 2; text-align: center; text-indent: 0px; text-transform: none; widows: 2; word-spacing: 0px; -webkit-text-stroke-width: 0px; white-space: nowrap; background-color: rgb(251, 251, 251); text-decoration-thickness: initial; text-decoration-style: initial; text-decoration-color: initial;&quot;&gt;E GERA A/S&lt;/div&gt;" style="text;html=1;align=center;verticalAlign=middle;resizable=0;points=[];autosize=1;strokeColor=none;fillColor=none;" vertex="1" parent="UAtVvdvIkmCO4cbzxBcW-68">
          <mxGeometry x="-10" y="10" width="110" height="40" as="geometry" />
        </mxCell>
        <mxCell id="UAtVvdvIkmCO4cbzxBcW-70" value="TESTE FEITO COM&lt;div&gt;A/S ERRADO&lt;/div&gt;" style="whiteSpace=wrap;html=1;" vertex="1" parent="1">
          <mxGeometry x="1490" y="220" width="120" height="60" as="geometry" />
        </mxCell>
        <mxCell id="UAtVvdvIkmCO4cbzxBcW-72" value="" style="endArrow=classic;html=1;rounded=0;exitX=0.5;exitY=1;exitDx=0;exitDy=0;entryX=0.5;entryY=1;entryDx=0;entryDy=0;strokeColor=#009900;" edge="1" parent="1" source="UAtVvdvIkmCO4cbzxBcW-70" target="UAtVvdvIkmCO4cbzxBcW-66">
          <mxGeometry width="50" height="50" relative="1" as="geometry">
            <mxPoint x="1540" y="440" as="sourcePoint" />
            <mxPoint x="490" y="810" as="targetPoint" />
            <Array as="points">
              <mxPoint x="1550" y="810" />
              <mxPoint x="500" y="830" />
            </Array>
          </mxGeometry>
        </mxCell>
        <mxCell id="UAtVvdvIkmCO4cbzxBcW-73" value="FALSO NEGATIVO" style="edgeLabel;html=1;align=center;verticalAlign=middle;resizable=0;points=[];" vertex="1" connectable="0" parent="UAtVvdvIkmCO4cbzxBcW-72">
          <mxGeometry x="0.0144" y="-2" relative="1" as="geometry">
            <mxPoint as="offset" />
          </mxGeometry>
        </mxCell>
      </root>
    </mxGraphModel>
  </diagram>
</mxfile>
